<?xml version="1.0" encoding="UTF-8" standalone="no" ?>
<!DOCTYPE svg PUBLIC "-//W3C//DTD SVG 1.1//EN" "http://www.w3.org/Graphics/SVG/1.1/DTD/svg11.dtd">
<svg xmlns="http://www.w3.org/2000/svg" xmlns:xlink="http://www.w3.org/1999/xlink" version="1.1" width="1280" height="1024" viewBox="0 0 1280 1024" xml:space="preserve">
<desc>Created with Fabric.js 5.3.0</desc>
<defs>
</defs>
<g transform="matrix(1 0 0 1 640 512)" id="background-logo"  >
<rect style="stroke: none; stroke-width: 0; stroke-dasharray: none; stroke-linecap: butt; stroke-dashoffset: 0; stroke-linejoin: miter; stroke-miterlimit: 4; fill: rgb(0,0,0); fill-rule: nonzero; opacity: 0;"  paint-order="stroke"  x="-640" y="-512" rx="0" ry="0" width="1280" height="1024" />
</g>
<g transform="matrix(1.9211538461538462 0 0 1.9211538461538462 629.9358502024293 723.7487974708368)" id="text-logo"  >
<g style=""  paint-order="stroke"   >
		<g transform="matrix(1 0 0 1 0 0)" id="text-logo-path-0"  >
<linearGradient id="SVGID_146636" gradientUnits="userSpaceOnUse" gradientTransform="matrix(1 0 0 1 2.4000000000000057 -28.48)"  x1="251.20000000000002" y1="-6.685600000000022" x2="251.19999999999996" y2="38.51439999999997">
<stop offset="0%" style="stop-color:#003366;stop-opacity: 1"/>
<stop offset="100%" style="stop-color:#004d99;stop-opacity: 1"/>
</linearGradient>
<!-- Change fill to none and opacity to 0 -->
<path style="stroke: none; stroke-width: 0; stroke-dasharray: none; stroke-linecap: butt; stroke-dashoffset: 0; stroke-linejoin: miter; stroke-miterlimit: 4; fill: none; fill-rule: nonzero; opacity: 0;" paint-order="stroke" />
  transform=" translate(-248.8, 14)" d="M 24.32 0 L 29.2 0 L 29.2 -28.04 L 27.28 -28.04 L 15.8 -11.48 L 4.32 -28.04 L 2.4 -28.04 L 2.4 0 L 7.28 0 L 7.28 -20.24 L 15.8 -7.96 L 24.32 -20.24 Z M 32.32 0 L 37.52 0 L 40.44 -7.72 L 50.96 -7.72 L 53.88 0 L 59.08 0 L 48.4 -28 L 43 -28 Z M 41.16 -9.64 L 45.72 -21.6 L 50.24 -9.64 Z M 62.2 0 L 67.16 0 L 67.16 -11.2 L 69.32 -11.2 L 76.8 0 L 82.68 0 L 74.88 -11.68 C 79 -12.8 81.56 -15.76 81.56 -19.84 C 81.56 -25.04 77.56 -28.48 71.88 -28.48 C 66.2 -28.48 62.2 -25.12 62.2 -18.32 Z M 67.16 -18.24 C 67.16 -22 69.32 -23.52 71.88 -23.52 C 74.96 -23.52 76.52 -21.56 76.52 -18.32 C 76.52 -15.08 74.28 -13.12 70.6 -13.12 L 67.16 -13.12 Z M 86.04 0 L 91 0 L 91 -28 L 86.04 -28 Z M 95 -14 C 95 -5.28 100.48 0.48 108.68 0.48 C 116.84 0.48 122.32 -5.28 122.32 -14 C 122.32 -22.72 116.84 -28.48 108.68 -28.48 C 100.48 -28.48 95 -22.72 95 -14 Z M 100.04 -14 C 100.04 -19.96 103.28 -23.52 108.68 -23.52 C 114.04 -23.52 117.28 -19.96 117.28 -14 C 117.28 -8.04 114.04 -4.48 108.68 -4.48 C 103.28 -4.48 100.04 -8.04 100.04 -14 Z M 144.64 -28.04 L 144.64 -7.2 L 128.24 -28.04 L 126.32 -28.04 L 126.32 0 L 131.2 0 L 131.2 -20.84 L 147.6 0 L 149.52 0 L 149.52 -28.04 Z M 177.6 0.48 C 184.04 0.48 188.8 -3.12 190.52 -8.92 L 185.16 -8.92 C 183.84 -6.08 181.2 -4.48 177.6 -4.48 C 172.2 -4.48 168.96 -8.04 168.96 -14 C 168.96 -19.96 172.2 -23.52 177.6 -23.52 C 181.2 -23.52 183.84 -21.92 185.16 -19.08 L 190.52 -19.08 C 188.8 -24.88 184.04 -28.48 177.6 -28.48 C 169.4 -28.48 163.92 -22.72 163.92 -14 C 163.92 -5.28 169.4 0.48 177.6 0.48 Z M 193.08 -14 C 193.08 -5.28 198.56 0.48 206.76 0.48 C 214.92 0.48 220.4 -5.28 220.4 -14 C 220.4 -22.72 214.92 -28.48 206.76 -28.48 C 198.56 -28.48 193.08 -22.72 193.08 -14 Z M 198.12 -14 C 198.12 -19.96 201.36 -23.52 206.76 -23.52 C 212.12 -23.52 215.36 -19.96 215.36 -14 C 215.36 -8.04 212.12 -4.48 206.76 -4.48 C 201.36 -4.48 198.12 -8.04 198.12 -14 Z M 224.4 -12 C 224.4 -3.84 228.12 0.48 235.32 0.48 C 242.48 0.48 245.88 -3.84 245.88 -12 L 245.88 -28 L 243.8 -28 L 243.8 -12.16 C 243.8 -6.16 241.64 -3.68 236.76 -3.68 C 231.76 -3.68 229.36 -6.12 229.36 -12.16 L 229.36 -28 L 224.4 -28 Z M 269 -28.04 L 269 -7.2 L 252.6 -28.04 L 250.68 -28.04 L 250.68 0 L 255.56 0 L 255.56 -20.84 L 271.96 0 L 273.88 0 L 273.88 -28.04 Z M 285.48 0 L 290.44 0 L 290.44 -23.04 L 298.92 -23.04 L 298.92 -28 L 277 -28 L 277 -23.04 L 285.48 -23.04 Z M 320.56 -28 L 312.92 -15.4 L 305.32 -28 L 300.36 -28 L 311.88 -9.04 L 311.88 0 L 313.96 0 L 313.96 -9 L 325.52 -28 Z M 339.08 0 L 349.44 0 C 357.6 0 363.08 -5.6 363.08 -14 C 363.08 -22.4 357.6 -28 349.44 -28 L 339.08 -28 Z M 344.04 -23.04 L 349.44 -23.04 C 354.8 -23.04 358.04 -19.64 358.04 -14 C 358.04 -8.36 354.8 -4.96 349.44 -4.96 L 344.04 -4.96 Z M 367.12 0 L 385.32 0 L 385.32 -4.96 L 372.08 -4.96 L 372.08 -14 L 383 -14 L 383 -15.92 L 372.08 -15.92 L 372.08 -23.04 L 385.32 -23.04 L 385.32 -28 L 367.12 -28 Z M 389.32 0 L 394.28 0 L 394.28 -11.2 L 398.24 -11.2 C 404.48 -11.2 408.68 -14.64 408.68 -19.84 C 408.68 -25.04 404.68 -28.48 399 -28.48 C 393.32 -28.48 389.32 -25.12 389.32 -18.32 Z M 394.28 -18.24 C 394.28 -22 396.44 -23.52 399 -23.52 C 402.08 -23.52 403.64 -21.56 403.64 -18.32 C 403.64 -15.08 401.4 -13.12 397.72 -13.12 L 394.28 -13.12 Z M 419.48 0 L 424.44 0 L 424.44 -23.04 L 432.92 -23.04 L 432.92 -28 L 411 -28 L 411 -23.04 L 419.48 -23.04 Z M 445.64 -14 C 445.64 -5.28 451.12 0.48 459.32 0.48 C 467.48 0.48 472.96 -5.28 472.96 -14 C 472.96 -22.72 467.48 -28.48 459.32 -28.48 C 451.12 -28.48 445.64 -22.72 445.64 -14 Z M 450.68 -14 C 450.68 -19.96 453.92 -23.52 459.32 -23.52 C 464.68 -23.52 467.92 -19.96 467.92 -14 C 467.92 -8.04 464.68 -4.48 459.32 -4.48 C 453.92 -4.48 450.68 -8.04 450.68 -14 Z M 477 0 L 481.96 0 L 481.96 -14 L 492.88 -14 L 492.88 -15.92 L 481.96 -15.92 L 481.96 -23.04 L 495.2 -23.04 L 495.2 -28 L 477 -28 Z" stroke-linecap="round" />
</g>
</g>
</g>
<g transform="matrix(1.9211538461538462 0 0 1.9211538461538462 639.5445011639675 810.4161942337005)" id="tagline-ec277054-0685-40c8-b7ec-3b809433ea82-logo"  >
<g style=""  paint-order="stroke"   >
		<g transform="matrix(1 0 0 1 0 0)" id="tagline-ec277054-0685-40c8-b7ec-3b809433ea82-logo-path-0"  >
<linearGradient id="SVGID_146637" gradientUnits="userSpaceOnUse" gradientTransform="matrix(1 0 0 1 1.1999999999999886 -18.51)"  x1="275.67150000000004" y1="-4.34564000000006" x2="275.67150000000004" y2="24.65435999999994">
<stop offset="0%" style="stop-color:#c5a059;stop-opacity: 1"/>
<stop offset="100%" style="stop-color:#d4b47a;stop-opacity: 1"/>
</linearGradient>
<path style="stroke: none; stroke-width: 0; stroke-dasharray: none; stroke-linecap: butt; stroke-dashoffset: 0; stroke-linejoin: miter; stroke-miterlimit: 4; fill: url(#SVGID_146637); fill-rule: nonzero; opacity: 1;"  paint-order="stroke"  transform=" translate(-277.07, 9.100000000000001)" d="M 1.2 0 L 8.01 0 C 13 0 16.02 -3.43 16.02 -9.1 C 16.02 -14.77 13 -18.2 8.01 -18.2 L 1.2 -18.2 Z M 4 -15.7 L 7.9 -15.7 C 11.13 -15.7 13.1 -13.13 13.1 -9.13 C 13.1 -5.07 11.13 -2.5 7.9 -2.5 L 4 -2.5 Z M 26.6 0 L 38.53 0 L 38.53 -2.5 L 29.41 -2.5 L 29.41 -7.85 L 37.96 -7.85 L 37.96 -10.35 L 29.41 -10.35 L 29.41 -15.7 L 38.53 -15.7 L 38.53 -18.2 L 26.6 -18.2 Z M 63.75 -18.2 L 60.94 -18.2 L 56.78 -5.54 L 56.42 -3.22 L 55.48 -3.22 L 55.12 -5.54 L 50.96 -18.2 L 48.15 -18.2 L 54.31 0 L 57.59 0 Z M 73.66 0 L 85.59 0 L 85.59 -2.5 L 76.47 -2.5 L 76.47 -7.85 L 85.02 -7.85 L 85.02 -10.35 L 76.47 -10.35 L 76.47 -15.7 L 85.59 -15.7 L 85.59 -18.2 L 73.66 -18.2 Z M 96.2 0 L 107.61 0 L 107.61 -2.5 L 99.01 -2.5 L 99.01 -18.2 L 96.2 -18.2 Z M 117.13 -9.1 C 117.13 -3.22 120.15 0.31 125.19 0.31 C 130.18 0.31 133.2 -3.22 133.2 -9.1 C 133.2 -14.98 130.18 -18.51 125.19 -18.51 C 120.15 -18.51 117.13 -14.98 117.13 -9.1 Z M 120.04 -9.13 C 120.04 -13.34 122.02 -15.91 125.19 -15.91 C 128.31 -15.91 130.29 -13.34 130.29 -9.13 C 130.29 -4.86 128.31 -2.29 125.19 -2.29 C 122.02 -2.29 120.04 -4.86 120.04 -9.13 Z M 143.78 0 L 146.59 0 L 146.59 -8.01 L 151.37 -8.01 C 155.53 -8.01 156.75 -11.26 156.75 -13.31 C 156.75 -16.2 155.09 -18.2 151.4 -18.2 L 143.78 -18.2 Z M 146.59 -15.7 L 150.96 -15.7 C 152.78 -15.7 153.84 -14.69 153.84 -13.1 C 153.84 -11.49 152.78 -10.5 150.96 -10.5 L 146.59 -10.5 Z M 166.71 0 L 169.52 0 L 169.52 -10.92 L 169 -14.01 L 169.99 -14.22 L 170.66 -11 L 174.02 0 L 176.83 0 L 180.18 -11 L 180.86 -14.22 L 181.84 -14.01 L 181.32 -10.92 L 181.32 0 L 184.13 0 L 184.13 -18.2 L 179.89 -18.2 L 176.2 -6.4 L 175.89 -4.08 L 174.95 -4.08 L 174.64 -6.4 L 170.95 -18.2 L 166.71 -18.2 Z M 195.03 0 L 206.96 0 L 206.96 -2.5 L 197.83 -2.5 L 197.83 -7.85 L 206.39 -7.85 L 206.39 -10.35 L 197.83 -10.35 L 197.83 -15.7 L 206.96 -15.7 L 206.96 -18.2 L 195.03 -18.2 Z M 217.57 0 L 220.38 0 L 220.38 -12.17 L 219.93 -14.43 L 220.82 -14.66 L 221.62 -12.17 L 227.92 0 L 231.45 0 L 231.45 -18.2 L 228.64 -18.2 L 228.64 -7.8 L 229.09 -4.63 L 228.2 -4.39 L 226.95 -7.8 L 221.55 -18.2 L 217.57 -18.2 Z M 246.12 0 L 248.92 0 L 248.92 -15.7 L 254.1 -15.7 L 254.1 -18.2 L 241.25 -18.2 L 241.25 -15.7 L 246.12 -15.7 Z M 260.99 0 L 263.95 0 L 265.25 -3.95 L 272.64 -3.95 L 273.94 0 L 276.9 0 L 270.5 -18.2 L 267.38 -18.2 Z M 265.95 -6.45 L 268.14 -12.66 L 268.48 -14.98 L 269.41 -14.98 L 269.75 -12.66 L 271.93 -6.45 Z M 286.81 0 L 298.22 0 L 298.22 -2.5 L 289.61 -2.5 L 289.61 -18.2 L 286.81 -18.2 Z M 322.37 0 L 329.19 0 C 334.18 0 337.19 -3.43 337.19 -9.1 C 337.19 -14.77 334.18 -18.2 329.19 -18.2 L 322.37 -18.2 Z M 325.18 -15.7 L 329.08 -15.7 C 332.31 -15.7 334.28 -13.13 334.28 -9.13 C 334.28 -5.07 332.31 -2.5 329.08 -2.5 L 325.18 -2.5 Z M 347.78 0 L 350.58 0 L 350.58 -18.2 L 347.78 -18.2 Z M 374.74 -4.6 C 374.74 -8.53 372.79 -9.59 368.45 -10.69 C 365.9 -11.31 364.26 -12.25 364.26 -13.73 C 364.26 -14.82 365.12 -16.17 367.8 -16.17 C 370.14 -16.17 371.28 -15.16 371.57 -12.53 L 374.22 -12.53 C 374.04 -16.43 371.64 -18.51 367.77 -18.51 C 363.74 -18.51 361.35 -16.25 361.35 -13.34 C 361.35 -10.11 364.31 -8.53 367.54 -7.88 C 371.25 -7.15 371.83 -6.27 371.83 -4.63 C 371.83 -2.76 370.29 -2.03 367.98 -2.03 C 365.69 -2.03 363.82 -3.59 363.82 -6.37 L 361.17 -6.37 C 361.17 -1.92 363.87 0.31 368 0.31 C 372.22 0.31 374.74 -1.25 374.74 -4.6 Z M 383.16 0 L 386.13 0 L 387.43 -3.95 L 394.81 -3.95 L 396.11 0 L 399.07 0 L 392.68 -18.2 L 389.56 -18.2 Z M 388.13 -6.45 L 390.31 -12.66 L 390.65 -14.98 L 391.59 -14.98 L 391.92 -12.66 L 394.11 -6.45 Z M 408.98 0 L 411.79 0 L 411.79 -0.03 L 416.94 -0.03 C 420.55 -0.03 422.63 -1.87 422.63 -4.63 C 422.63 -6.99 421.67 -8.55 419.09 -9.02 L 419.09 -9.96 C 421.25 -10.48 421.95 -12.12 421.95 -14.17 C 421.95 -16.69 420 -18.2 416.6 -18.2 L 408.98 -18.2 Z M 411.79 -8.01 L 416.57 -8.01 C 418.57 -8.01 419.72 -6.94 419.72 -5.28 C 419.72 -3.59 418.57 -2.52 416.57 -2.52 L 411.79 -2.52 Z M 411.79 -15.7 L 416.16 -15.7 C 417.98 -15.7 419.04 -14.69 419.04 -13.1 C 419.04 -11.49 417.98 -10.5 416.16 -10.5 L 411.79 -10.5 Z M 433.21 0 L 436.02 0 L 436.02 -18.2 L 433.21 -18.2 Z M 446.91 0 L 458.33 0 L 458.33 -2.5 L 449.72 -2.5 L 449.72 -18.2 L 446.91 -18.2 Z M 468.16 0 L 470.96 0 L 470.96 -18.2 L 468.16 -18.2 Z M 485.63 0 L 488.44 0 L 488.44 -15.7 L 493.61 -15.7 L 493.61 -18.2 L 480.77 -18.2 L 480.77 -15.7 L 485.63 -15.7 Z M 503.44 0 L 506.25 0 L 506.25 -18.2 L 503.44 -18.2 Z M 517.14 0 L 529.07 0 L 529.07 -2.5 L 519.95 -2.5 L 519.95 -7.85 L 528.5 -7.85 L 528.5 -10.35 L 519.95 -10.35 L 519.95 -15.7 L 529.07 -15.7 L 529.07 -18.2 L 517.14 -18.2 Z M 552.94 -4.6 C 552.94 -8.53 550.99 -9.59 546.65 -10.69 C 544.1 -11.31 542.46 -12.25 542.46 -13.73 C 542.46 -14.82 543.32 -16.17 546 -16.17 C 548.34 -16.17 549.48 -15.16 549.77 -12.53 L 552.42 -12.53 C 552.24 -16.43 549.85 -18.51 545.97 -18.51 C 541.94 -18.51 539.55 -16.25 539.55 -13.34 C 539.55 -10.11 542.52 -8.53 545.74 -7.88 C 549.46 -7.15 550.03 -6.27 550.03 -4.63 C 550.03 -2.76 548.5 -2.03 546.18 -2.03 C 543.89 -2.03 542.02 -3.59 542.02 -6.37 L 539.37 -6.37 C 539.37 -1.92 542.07 0.31 546.21 0.31 C 550.42 0.31 552.94 -1.25 552.94 -4.6 Z" stroke-linecap="round" />
</g>
</g>
</g>
<g transform="matrix(1.3196795366157033 0 0 1.3196795366157033 748.8887421335634 264.40744790364846)" id="shape-538184f7-0d05-46f5-9667-3aa93f75b7fc"  >
<g style=""  paint-order="stroke"   >
		<g transform="matrix(1 0 0 1 -1.421085e-14 0)" id="Path-1"  >
<path style="stroke: none; stroke-width: 1; stroke-dasharray: none; stroke-linecap: butt; stroke-dashoffset: 0; stroke-linejoin: miter; stroke-miterlimit: 4; fill: #003366; fill-rule: nonzero; opacity: 1;"  paint-order="stroke"  transform=" translate(-83.15079891381257, -125.002040055917)" d="M 160.38 202.69 C 8.57 171.08 -2 58.28 0.24 12.4 C 0.48 7.45 7.29 6.24 9.21 10.81 C 11.66 16.62 14.290000000000001 22.33 17.07 27.950000000000003 C 43.269999999999996 80.73 105.33000000000001 100 156.59 70.93 C 157.08 70.65 157.57 70.37 158.06 70.09 C 161.93 67.85000000000001 166.21 72.29 163.83 76.07000000000001 C 153.73000000000002 92.12 133.85000000000002 116.4 103.31 122.66000000000001 C 94 124.57000000000001 90.03 135.73000000000002 95.87 143.23000000000002 C 113.99000000000001 166.52 148.07 187.85000000000002 164.11 194.34000000000003 C 168.76 196.22 165.29 203.71 160.38 202.69 z M 87.31 0 C 67.37 0 51.21 16.16 51.21 36.1 C 51.21 56.040000000000006 67.37 72.2 87.31 72.2 C 107.25 72.2 123.41 56.040000000000006 123.41 36.1 C 123.41 16.159999999999997 107.25 0 87.31 0 z M 28.93 247.79 C 30.86 251.60999999999999 36.62 250.17 36.54 245.89 C 35.51 186.35999999999999 60.03 165.10999999999999 60.03 165.10999999999999 C 36.69 150.91 23.07 125.77999999999999 23.07 125.77999999999999 C 1.23 179.11 17.57 225.38 28.93 247.79 z" stroke-linecap="round" />
</g>
</g>
</g>
<g transform="matrix(1.4239668949310584 0 0 1.4239668949310584 557.7084501342762 419.1018376294285)" id="shape-da90c1f3-5134-4f6f-944b-0d16e606890a"  >
<g style=""  paint-order="stroke"   >
		<g transform="matrix(1 0 0 1 3.8662318775364355 0.2448548223195104)" id="path-06"  >
<path style="stroke: none; stroke-width: 1; stroke-dasharray: none; stroke-linecap: butt; stroke-dashoffset: 0; stroke-linejoin: miter; stroke-miterlimit: 4; fill: #c5a059; fill-rule: nonzero; opacity: 1;"  paint-order="stroke"  transform=" translate(-87.05304149007948, -125.24485566493547)" d="M 28.81334 87.33345 C 44.172219999999996 70.21777 64.68991 55.99401 88.22739 53.06263 C 109.98748 50.45238 131.96043 58.91627 140.83871 80.07021 C 148.96489 99.00376 145.12631 119.97422 136.12613 137.54013 C 120.42186 169.07148 88.14889 191.48433 54.75662999999999 197.88591 C 78.70675999999999 178.06474 101.85638999999999 156.1701 113.38487999999998 127.23814 C 118.14099999999998 115.62431000000001 121.29243999999998 101.90694 116.85709999999997 89.99674999999999 C 114.40544999999997 82.99242 108.78911999999997 78.40144 101.96281999999998 76.22688 C 77.80139999999997 68.38692999999999 51.80878999999998 79.51880999999999 28.813349999999986 87.33344 L 28.813349999999986 87.33344 Z" stroke-linecap="round" />
</g>
		<g transform="matrix(1 0 0 1 0 44.35285499999999)" id="path-05"  >
<path style="stroke: none; stroke-width: 1; stroke-dasharray: none; stroke-linecap: butt; stroke-dashoffset: 0; stroke-linejoin: miter; stroke-miterlimit: 4; fill: #c5a059; fill-rule: nonzero; opacity: 1;"  paint-order="stroke"  transform=" translate(-83.18680961254304, -169.35285584261595)" d="M 159.62649 141.36187 C 170.20135 162.88212000000001 167.93904999999998 189.46063 155.6833 210.10414000000003 C 138.29148 240.00042000000002 101.07365 255.54591000000002 67.35462 248.19147000000004 C 3.14224 234.62749 -23.30321 154.68915 24.39781 108.05635 C 35.92528 97.19004 50.8681 90.08427999999999 66.40333 88.70571 C 59.67534 92.24002 53.516149999999996 96.20671999999999 48.07065 100.83726999999999 C 29.51155 116.82320999999999 19.18085 141.45047 22.30534 165.66991 C 26.4247 199.93468 56.83414 226.21974 91.40390000000001 224.71445999999997 C 134.66344 222.72777999999997 163.50736 183.47056999999998 159.62649 141.36187999999999 L 159.62649 141.36187999999999 Z" stroke-linecap="round" />
</g>
		<g transform="matrix(1 0 0 1 11.354300387456963 -102.83807084261596)" id="path-04"  >
<circle style="stroke: none; stroke-width: 1; stroke-dasharray: none; stroke-linecap: butt; stroke-dashoffset: 0; stroke-linejoin: miter; stroke-miterlimit: 4; fill: #c5a059; fill-rule: nonzero; opacity: 1;"  paint-order="stroke"  cx="0" cy="0" r="22.16193" />
</g>
		<g transform="matrix(1 0 0 1 10.766005387456957 -109.07204584261596)" id="path-03"  >
<path style="stroke: none; stroke-width: 1; stroke-dasharray: none; stroke-linecap: butt; stroke-dashoffset: 0; stroke-linejoin: miter; stroke-miterlimit: 4; fill: #c5a059; fill-rule: nonzero; opacity: 1;"  paint-order="stroke"  transform=" translate(-93.952815, -15.927955000000003)" d="M 98.25774 10.17661 C 103.77634 10.17661 108.80735 12.22214 112.67041 15.5774 C 109.97571 8.162410000000001 102.88738000000001 2.8560100000000013 94.54114 2.8560100000000013 C 83.87867 2.8560100000000013 75.23522 11.499460000000001 75.23522 22.16193 C 75.23522 24.573210000000003 75.69709999999999 26.871640000000003 76.50465 28.999900000000004 C 78.05215 18.358310000000003 87.18733999999999 10.176610000000004 98.25774 10.176610000000004 Z" stroke-linecap="round" />
</g>
		<g transform="matrix(1 0 0 1 5.072329494920467 -31.38102942124327)" id="path-02"  >
<path style="stroke: none; stroke-width: 1; stroke-dasharray: none; stroke-linecap: butt; stroke-dashoffset: 0; stroke-linejoin: miter; stroke-miterlimit: 4; fill: #c5a059; fill-rule: nonzero; opacity: 1;"  paint-order="stroke"  transform=" translate(-88.25913910746351, -93.61897142137269)" d="M 33.98878 84.03886 C 33.98878 84.03886 71.74678 45.88039 111.25082 57.27423 C 152.25151 69.09974 143.9232 119.25906 136.03349 132.08771000000002 C 136.03349 132.08771000000002 150.80259 86.27379000000002 110.61261 73.49306000000001 C 75.77146 62.41331000000001 33.988780000000006 84.03885000000001 33.988780000000006 84.03885000000001 Z" stroke-linecap="round" />
</g>
		<g transform="matrix(1 0 0 1 16.07909441935702 78.56652918108178)" id="path-01"  >
<path style="stroke: none; stroke-width: 1; stroke-dasharray: none; stroke-linecap: butt; stroke-dashoffset: 0; stroke-linejoin: miter; stroke-miterlimit: 4; fill: #c5a059; fill-rule: nonzero; opacity: 1;"  paint-order="stroke"  transform=" translate(-99.26590403190006, -203.56653002369774)" d="M 162.41344 160.41262 C 162.41344 160.41262 169.13364 201.81681 133.94008000000002 229.76463999999999 C 98.74652000000003 257.71247 52.85687000000003 246.32631999999998 35.60512000000003 229.76463999999999 C 35.60512000000003 229.76463999999999 76.31924000000004 249.43162999999998 120.48372000000003 224.58911999999998 C 164.64819000000003 199.74659999999997 162.41345000000004 160.41261999999998 162.41345000000004 160.41261999999998 Z" stroke-linecap="round" />
</g>
</g>
</g>
<g transform="matrix(1.9211538461538462 0 0 1.9211538461538462 639.1573886639676 511.3259109311742)" id="shape-28731da4-65db-4a0d-936d-98208967fce8"  >
<g style=""  paint-order="stroke"   >
		<g transform="matrix(1 0 0 1 38.602996650867894 0)" id="path-02_00000022539111298387141840000006492443793274452406_"  >
<path style="stroke: none; stroke-width: 1; stroke-dasharray: none; stroke-linecap: butt; stroke-dashoffset: 0; stroke-linejoin: miter; stroke-miterlimit: 4; fill: #c5a059; fill-rule: nonzero; opacity: 1;"  paint-order="stroke"  transform=" translate(-163.60762252230006, -74.98070600129785)" d="M 188.91 0.01 C 208.85 2.7199999999999998 224 11.12 230.44 24.98 C 245 56.3 209.55 103.65 151.26999999999998 130.74 C 125.40999999999998 142.76000000000002 99.40999999999998 148.76000000000002 77.20999999999998 148.99 C 102.33999999999997 152.41 135.07 146.8 167.57 131.70000000000002 C 225.85 104.62000000000002 261.28999999999996 57.26000000000002 246.74 25.940000000000012 C 238.63 8.51 216.76 -0.28 188.91 0.01 z" stroke-linecap="round" />
</g>
		<g transform="matrix(1 0 0 1 -20.507622522300068 25.83614242794748)" id="path-01_00000159440944979199185080000002742706284753078702_"  >
<path style="stroke: none; stroke-width: 1; stroke-dasharray: none; stroke-linecap: butt; stroke-dashoffset: 0; stroke-linejoin: miter; stroke-miterlimit: 4; fill: #003366; fill-rule: nonzero; opacity: 1;"  paint-order="stroke"  transform=" translate(-104.4970033491321, -100.81684842924533)" d="M 24.65 55.66 C 12.47 71.68 7.7 88.33 12.95 102.68 C 24.81 135.12 83.36 143.52 143.72 121.45 C 170.5 111.66 193.13 97.51 208.99 81.97 C 193.65 102.16 166.54000000000002 121.35 132.89000000000001 133.66 C 72.53000000000002 155.73 13.990000000000009 147.32999999999998 2.1200000000000045 114.89 C -4.49 96.84 4.76 75.15 24.65 55.66 z" stroke-linecap="round" />
</g>
</g>
</g>
<g transform="matrix(-0.3871794463269007 0 0 0.3871794463269007 577.2781764965869 132.46049661755836)" id="shape-f0ffb05b-2d90-4734-a5cc-c05d27c87b7d"  >
<g style=""  paint-order="stroke"   >
		<g transform="matrix(1 0 0 1 -7.638295000000014 0.0023950000000070304)" id="path-03"  >
<path style="stroke: none; stroke-width: 1; stroke-dasharray: none; stroke-linecap: butt; stroke-dashoffset: 0; stroke-linejoin: miter; stroke-miterlimit: 4; fill: #c5a059; fill-rule: nonzero; opacity: 1;"  paint-order="stroke"  transform=" translate(-117.361725, -124.81851999999999)" d="M 189.79378 111.89553 C 192.58896 127.12956 215.89392 236.36747 215.89392 236.36747 L 202.14635 249.63222 L 192.75703000000001 231.79362999999998 C 192.64257 231.57742 181.23294 210.15590999999998 154.65256000000002 177.10855999999998 C 97.17263000000003 221.17158999999998 24.686980000000034 236.24059999999997 21.535990000000027 236.87588 L 0.000020000000027664555 241.23382 L 15.894470000000029 226.05066 C 16.453760000000027 225.51697 71.36743000000003 172.75046 99.92966000000003 120.91152 C 64.12498000000002 94.07723 29.34984000000003 84.84022999999999 28.99405000000003 84.75128 L 15.08145000000003 80.2408 L 28.81631000000003 66.97612 L 48.62418000000003 65.03219999999999 C 62.015960000000035 61.32210999999999 125.64584000000002 57.446899999999985 125.64584000000002 57.446899999999985 C 132.45619000000002 34.80545999999998 132.65937000000002 24.15813999999998 132.65937000000002 24.04383999999998 L 134.70480000000003 13.269419999999982 L 148.43963 0.00482 L 178.03108 64.79079999999999 C 196.74644 68.65328 211.62468 73.76096999999999 222.28488 79.98667999999999 C 231.06436 85.1198 234.02487 89.31263999999999 234.72342999999998 90.48154 C 234.72342999999998 90.48154 210.41497999999999 91.38870999999999 189.79377999999997 111.89554 Z" stroke-linecap="round" />
</g>
		<g transform="matrix(1 0 0 1 6.868049999999997 -6.634205000000037)" id="path-02"  >
<path style="stroke: none; stroke-width: 1; stroke-dasharray: none; stroke-linecap: butt; stroke-dashoffset: 0; stroke-linejoin: miter; stroke-miterlimit: 4; fill: #c5a059; fill-rule: nonzero; opacity: 1;"  paint-order="stroke"  transform=" translate(-131.86807000000002, -118.18191999999995)" d="M 206.4981 218.5275 C 206.38271 218.30788 194.96253 196.88947000000002 168.39363 163.83871 C 110.90935999999999 207.90639 38.4178 222.97571 35.27365 223.61222999999998 L 13.736120000000003 227.97482999999997 L 29.624350000000003 212.79259999999996 C 30.192630000000005 212.25037999999998 85.10476 159.48603999999997 113.66387 107.64733999999997 C 77.86229 80.81662999999998 43.08684000000001 71.58023999999997 42.72578 71.48717999999997 L 28.81128 66.97710999999997 L 41.10409 59.85607999999997 C 42.17488 59.22823999999997 67.95962 44.48524999999997 122.49827 44.48524999999997 C 127.9205 44.48524999999997 133.50527 44.634139999999974 139.15704 44.92820999999997 C 146.19601 21.77021999999997 146.39204999999998 10.89847999999997 146.39329 10.784319999999973 L 148.44334 0.000029999999972218916 L 157.06902 6.162409999999972 C 170.53152 18.66453999999997 182.04971999999998 33.88647999999997 191.33575 51.44232999999997 C 210.25026 55.30985999999997 225.27242999999999 60.44668999999997 236.01762 66.72630999999997 C 244.79864999999998 71.85570999999997 247.75791999999998 76.05203999999998 248.45648 77.21465999999997 L 250.00002 79.78804999999997 L 248.9925 82.61455999999997 C 247.41919000000001 87.03051999999997 235.24461 100.68781999999997 214.62031000000002 121.19176999999996 C 223.89393 171.73509999999996 218.65534000000002 214.53097999999994 218.42207000000002 216.36733999999996 L 215.88839000000002 236.36380999999994 L 206.49814 218.52753999999993 L 206.49812 218.52753999999993 Z" stroke-linecap="round" />
</g>
		<g transform="matrix(1 0 0 1 13.510079999999945 -10.714819999999975)" id="path-01"  >
<path style="stroke: none; stroke-width: 1; stroke-dasharray: none; stroke-linecap: butt; stroke-dashoffset: 0; stroke-linejoin: miter; stroke-miterlimit: 4; fill: #003366; fill-rule: nonzero; opacity: 1;"  paint-order="stroke"  transform=" translate(-138.51009999999997, -114.10130500000001)" d="M 243.00752 80.48222 C 243.00752 80.48222 234.45666 66.22654 187.10276 57.07849 C 178.5519 40.26889 167.35817 24.38686 152.74669999999998 10.817260000000005 C 152.74669999999998 10.817260000000005 152.74669999999998 23.535600000000002 143.73860999999997 51.564220000000006 C 75.57304999999997 47.01565000000001 44.31707999999996 65.33715000000001 44.31707999999996 65.33715000000001 C 44.31707999999996 65.33715000000001 82.96749999999996 75.29833 121.80867999999997 105.89348000000001 C 93.27188999999997 160.78172 34.01267999999996 217.38535000000002 34.01267999999996 217.38535000000002 C 34.01267999999996 217.38535000000002 111.73320999999996 201.64306000000002 169.37847999999997 154.97532 C 199.60521999999997 191.7962 212.12037999999995 215.56853 212.12037999999995 215.56853 C 212.12037999999995 215.56853 217.81247999999997 170.6413 207.74940999999995 119.05648000000001 C 240.96208999999996 86.22518000000001 243.00751999999994 80.48222000000001 243.00751999999994 80.48221000000001 Z" stroke-linecap="round" />
</g>
</g>
</g>
</svg>